<mxfile host="app.diagrams.net" modified="2022-08-22T15:26:35.517Z" agent="5.0 (Macintosh; Intel Mac OS X 10_15_7) AppleWebKit/537.36 (KHTML, like Gecko) Chrome/104.0.0.0 Safari/537.36" etag="6sI4nmrribsfQf8wAK1D" version="20.2.2" type="github">
  <diagram id="3TmxXlATYsiDRvL7M1Jl" name="Page-1">
    <mxGraphModel dx="1298" dy="728" grid="1" gridSize="10" guides="1" tooltips="1" connect="1" arrows="1" fold="1" page="1" pageScale="1" pageWidth="850" pageHeight="1100" math="0" shadow="0">
      <root>
        <mxCell id="0" />
        <mxCell id="1" parent="0" />
        <mxCell id="yFXMNnFhYH_2_vV9QVNL-22" style="rounded=0;orthogonalLoop=1;jettySize=auto;html=1;exitX=1;exitY=0.5;exitDx=0;exitDy=0;entryX=0.483;entryY=-0.033;entryDx=0;entryDy=0;entryPerimeter=0;fontSize=14;edgeStyle=orthogonalEdgeStyle;" edge="1" parent="1" source="yFXMNnFhYH_2_vV9QVNL-1" target="yFXMNnFhYH_2_vV9QVNL-2">
          <mxGeometry relative="1" as="geometry" />
        </mxCell>
        <mxCell id="yFXMNnFhYH_2_vV9QVNL-23" value="Generate tasks" style="edgeLabel;html=1;align=center;verticalAlign=middle;resizable=0;points=[];fontSize=14;" vertex="1" connectable="0" parent="yFXMNnFhYH_2_vV9QVNL-22">
          <mxGeometry x="-0.7559" y="3" relative="1" as="geometry">
            <mxPoint x="39" y="-7" as="offset" />
          </mxGeometry>
        </mxCell>
        <mxCell id="yFXMNnFhYH_2_vV9QVNL-1" value="Manager" style="rounded=0;whiteSpace=wrap;html=1;fontSize=14;" vertex="1" parent="1">
          <mxGeometry x="80" y="40" width="120" height="60" as="geometry" />
        </mxCell>
        <mxCell id="yFXMNnFhYH_2_vV9QVNL-18" style="rounded=0;orthogonalLoop=1;jettySize=auto;html=1;exitX=0.5;exitY=1;exitDx=0;exitDy=0;entryX=0.5;entryY=0;entryDx=0;entryDy=0;fontSize=14;" edge="1" parent="1" source="yFXMNnFhYH_2_vV9QVNL-2" target="yFXMNnFhYH_2_vV9QVNL-3">
          <mxGeometry relative="1" as="geometry" />
        </mxCell>
        <mxCell id="yFXMNnFhYH_2_vV9QVNL-19" style="edgeStyle=none;rounded=0;orthogonalLoop=1;jettySize=auto;html=1;exitX=0.5;exitY=1;exitDx=0;exitDy=0;entryX=0.5;entryY=0;entryDx=0;entryDy=0;fontSize=14;" edge="1" parent="1" source="yFXMNnFhYH_2_vV9QVNL-2" target="yFXMNnFhYH_2_vV9QVNL-4">
          <mxGeometry relative="1" as="geometry" />
        </mxCell>
        <mxCell id="yFXMNnFhYH_2_vV9QVNL-20" style="edgeStyle=none;rounded=0;orthogonalLoop=1;jettySize=auto;html=1;exitX=0.5;exitY=1;exitDx=0;exitDy=0;entryX=0.5;entryY=0;entryDx=0;entryDy=0;fontSize=14;" edge="1" parent="1" source="yFXMNnFhYH_2_vV9QVNL-2" target="yFXMNnFhYH_2_vV9QVNL-5">
          <mxGeometry relative="1" as="geometry" />
        </mxCell>
        <mxCell id="yFXMNnFhYH_2_vV9QVNL-21" style="edgeStyle=none;rounded=0;orthogonalLoop=1;jettySize=auto;html=1;exitX=0.5;exitY=1;exitDx=0;exitDy=0;entryX=0.5;entryY=0;entryDx=0;entryDy=0;fontSize=14;" edge="1" parent="1" source="yFXMNnFhYH_2_vV9QVNL-2" target="yFXMNnFhYH_2_vV9QVNL-6">
          <mxGeometry relative="1" as="geometry" />
        </mxCell>
        <mxCell id="yFXMNnFhYH_2_vV9QVNL-2" value="Queue" style="rounded=1;whiteSpace=wrap;html=1;fontSize=14;" vertex="1" parent="1">
          <mxGeometry x="80" y="190" width="530" height="60" as="geometry" />
        </mxCell>
        <mxCell id="yFXMNnFhYH_2_vV9QVNL-11" style="edgeStyle=orthogonalEdgeStyle;rounded=0;orthogonalLoop=1;jettySize=auto;html=1;exitX=0.5;exitY=1;exitDx=0;exitDy=0;entryX=0.5;entryY=0;entryDx=0;entryDy=0;fontSize=14;" edge="1" parent="1" source="yFXMNnFhYH_2_vV9QVNL-3" target="yFXMNnFhYH_2_vV9QVNL-8">
          <mxGeometry relative="1" as="geometry" />
        </mxCell>
        <mxCell id="yFXMNnFhYH_2_vV9QVNL-14" value="Register" style="edgeLabel;html=1;align=center;verticalAlign=middle;resizable=0;points=[];fontSize=14;" vertex="1" connectable="0" parent="yFXMNnFhYH_2_vV9QVNL-11">
          <mxGeometry x="-0.3" y="3" relative="1" as="geometry">
            <mxPoint x="30" y="-7" as="offset" />
          </mxGeometry>
        </mxCell>
        <mxCell id="yFXMNnFhYH_2_vV9QVNL-3" value="Worker" style="rounded=0;whiteSpace=wrap;html=1;fontSize=14;" vertex="1" parent="1">
          <mxGeometry x="80" y="380" width="120" height="60" as="geometry" />
        </mxCell>
        <mxCell id="yFXMNnFhYH_2_vV9QVNL-12" style="edgeStyle=orthogonalEdgeStyle;rounded=0;orthogonalLoop=1;jettySize=auto;html=1;exitX=0.5;exitY=1;exitDx=0;exitDy=0;entryX=0.5;entryY=0;entryDx=0;entryDy=0;fontSize=14;" edge="1" parent="1" source="yFXMNnFhYH_2_vV9QVNL-4" target="yFXMNnFhYH_2_vV9QVNL-9">
          <mxGeometry relative="1" as="geometry" />
        </mxCell>
        <mxCell id="yFXMNnFhYH_2_vV9QVNL-4" value="Worker" style="rounded=0;whiteSpace=wrap;html=1;fontSize=14;" vertex="1" parent="1">
          <mxGeometry x="250" y="380" width="120" height="60" as="geometry" />
        </mxCell>
        <mxCell id="yFXMNnFhYH_2_vV9QVNL-13" style="edgeStyle=orthogonalEdgeStyle;rounded=0;orthogonalLoop=1;jettySize=auto;html=1;exitX=0.5;exitY=1;exitDx=0;exitDy=0;entryX=0.5;entryY=0;entryDx=0;entryDy=0;fontSize=14;" edge="1" parent="1" source="yFXMNnFhYH_2_vV9QVNL-5" target="yFXMNnFhYH_2_vV9QVNL-10">
          <mxGeometry relative="1" as="geometry" />
        </mxCell>
        <mxCell id="yFXMNnFhYH_2_vV9QVNL-5" value="Worker" style="rounded=0;whiteSpace=wrap;html=1;fontSize=14;" vertex="1" parent="1">
          <mxGeometry x="430" y="380" width="120" height="60" as="geometry" />
        </mxCell>
        <mxCell id="yFXMNnFhYH_2_vV9QVNL-17" style="edgeStyle=orthogonalEdgeStyle;rounded=0;orthogonalLoop=1;jettySize=auto;html=1;exitX=0.5;exitY=1;exitDx=0;exitDy=0;entryX=0.75;entryY=0;entryDx=0;entryDy=0;fontSize=14;" edge="1" parent="1" source="yFXMNnFhYH_2_vV9QVNL-6" target="yFXMNnFhYH_2_vV9QVNL-10">
          <mxGeometry relative="1" as="geometry" />
        </mxCell>
        <mxCell id="yFXMNnFhYH_2_vV9QVNL-6" value="Worker" style="rounded=0;whiteSpace=wrap;html=1;fontSize=14;" vertex="1" parent="1">
          <mxGeometry x="610" y="380" width="120" height="60" as="geometry" />
        </mxCell>
        <mxCell id="yFXMNnFhYH_2_vV9QVNL-8" value="Task Handler" style="rounded=0;whiteSpace=wrap;html=1;fontSize=14;" vertex="1" parent="1">
          <mxGeometry x="180" y="540" width="120" height="60" as="geometry" />
        </mxCell>
        <mxCell id="yFXMNnFhYH_2_vV9QVNL-9" value="Task Handler" style="rounded=0;whiteSpace=wrap;html=1;fontSize=14;" vertex="1" parent="1">
          <mxGeometry x="365" y="540" width="120" height="60" as="geometry" />
        </mxCell>
        <mxCell id="yFXMNnFhYH_2_vV9QVNL-10" value="Task Handler" style="rounded=0;whiteSpace=wrap;html=1;fontSize=14;" vertex="1" parent="1">
          <mxGeometry x="560" y="540" width="120" height="60" as="geometry" />
        </mxCell>
        <mxCell id="yFXMNnFhYH_2_vV9QVNL-15" value="Register" style="edgeLabel;html=1;align=center;verticalAlign=middle;resizable=0;points=[];fontSize=14;" vertex="1" connectable="0" parent="1">
          <mxGeometry x="360" y="480" as="geometry" />
        </mxCell>
        <mxCell id="yFXMNnFhYH_2_vV9QVNL-16" value="Register" style="edgeLabel;html=1;align=center;verticalAlign=middle;resizable=0;points=[];fontSize=14;" vertex="1" connectable="0" parent="1">
          <mxGeometry x="550" y="480" as="geometry" />
        </mxCell>
        <mxCell id="yFXMNnFhYH_2_vV9QVNL-24" value="Consume tasks" style="text;html=1;strokeColor=none;fillColor=none;align=center;verticalAlign=middle;whiteSpace=wrap;rounded=0;fontSize=14;" vertex="1" parent="1">
          <mxGeometry x="510" y="290" width="120" height="30" as="geometry" />
        </mxCell>
      </root>
    </mxGraphModel>
  </diagram>
</mxfile>
